:SAMPLES-PER-SECOND 30
:FULLY-SPECIFIED
:DEGREES
317
root  -8.02705 33.4891 57.2144 -173.951 53.0147 -179.645
RightUpLeg  -2.82455 -14.7212 -0.417392
RightLeg  10.7235 -5.39524 -0.663189
RightFoot  -1.57975 -0.00238276 0.20481
RightToes  -29.0241 -0.137259 -0.245126
Spine  7.54066 1.81321 2.69476
Spine1  14.695 5.60765 1.48359
HEad  18.0015 25.66 -15.187
LeftShoulder1  0 -2.42657e-020 -4.95415e-022
LeftArm  -34.9931 3.93728 -93.7613
LeftForeArm  53.8677 -21.1681 -3.87592
LeftHand  -0.0242421 -11.0586 -0.119605
RightShoulder  0 2.42657e-020 1.07489e-018
RightArm  -44.807 18.8588 64.6216
RightForeArm  43.3094 21.4103 3.94454
RightHand  -1.20756 21.9666 -5.84783
LeftUpLeg  -31.8998 16.2388 -1.73887
LeftLeg  22.2774 0.936461 0.312401
LeftFoot  3.31859 -0.00284522 0.0982095
LeftToes  -13.3754 1.28829e-006 1.15665e-007
318
root  -7.51703 33.3738 56.941 -172.46 51.5682 -178.656
RightUpLeg  -2.17206 -15.0124 0.505226
RightLeg  10.3132 -6.67003 -0.771002
RightFoot  -2.4221 -0.000695227 0.344761
RightToes  -27.9308 -0.129935 -0.23733
Spine  7.27382 1.50557 2.63905
Spine1  14.2309 4.9845 1.43708
HEad  17.0071 25.7195 -14.5828
LeftShoulder1  0 -2.42657e-020 -4.95415e-022
LeftArm  -37.4717 5.20082 -92.8892
LeftForeArm  53.9519 -20.5618 -3.75326
LeftHand  -0.062603 -10.8529 0.28925
RightShoulder  0 2.42657e-020 1.07489e-018
RightArm  -40.0507 17.9648 68.4555
RightForeArm  42.8575 22.1023 4.08691
RightHand  -1.04871 22.5671 -4.88396
LeftUpLeg  -32.0991 16.6355 -1.61382
LeftLeg  17.0421 5.09807 1.20704
LeftFoot  0.34717 -8.86442e-005 0.0292501
LeftToes  -9.27565 1.28829e-006 1.15665e-007
319
root  -6.99013 33.2437 56.6123 -170.992 49.8081 -177.745
RightUpLeg  -1.70477 -15.7454 1.40238
RightLeg  10.3304 -7.77972 -0.900919
RightFoot  -3.249 0.00374553 0.509727
RightToes  -27.8111 -0.129142 -0.236469
Spine  7.05349 1.17551 2.59976
Spine1  13.8293 4.27121 1.47752
HEad  15.6669 25.4993 -14.0923
LeftShoulder1  0 -2.42657e-020 -4.95415e-022
LeftArm  -39.5322 6.10776 -91.8572
LeftForeArm  54.1845 -19.4261 -3.52601
LeftHand  -0.071839 -10.5777 0.406339
RightShoulder  0 2.42657e-020 1.07489e-018
RightArm  -37.3665 16.6151 72.2541
RightForeArm  43.8106 22.8668 4.24387
RightHand  -0.792245 23.843 -3.38208
LeftUpLeg  -32.8028 17.9099 -2.6388
LeftLeg  15.0903 7.686 1.5442
LeftFoot  -1.90023 -0.00452066 -0.272597
LeftToes  -6.67797 1.28829e-006 1.15665e-007
320
root  -6.5002 33.1187 56.2239 -169.619 48.2986 -176.922
RightUpLeg  -1.87442 -16.9992 2.05592
RightLeg  11.5052 -8.07921 -1.1032
RightFoot  -4.36801 0.0122307 0.698368
RightToes  -28.2243 -0.131887 -0.239437
Spine  6.90781 1.03255 2.56963
Spine1  13.5483 3.88182 1.63345
HEad  14.9637 24.9326 -13.9721
LeftShoulder1  0 -2.42657e-020 -4.95415e-022
LeftArm  -42.0481 6.58668 -91.0418
LeftForeArm  54.8176 -18.3049 -3.3041
LeftHand  0.0641103 -9.87874 -1.11254
RightShoulder  0 2.42657e-020 1.07489e-018
RightArm  -33.0787 14.4373 75.0382
RightForeArm  41.6064 24.1806 4.52327
RightHand  -0.937058 24.0301 -4.03178
LeftUpLeg  -33.3806 18.3516 -3.66432
LeftLeg  16.8348 6.05502 1.41008
LeftFoot  -1.5077 -0.00162349 -0.123393
LeftToes  -1.11046 1.28829e-006 1.15665e-007
321
root  -6.08552 33.0312 55.8096 -168.72 47.173 -176.693
RightUpLeg  -2.74534 -17.4653 2.23484
RightLeg  13.9244 -8.57624 -1.54065
RightFoot  -5.37381 0.0253882 0.918647
RightToes  -29.6867 -0.14177 -0.249783
Spine  7.02651 1.17636 2.30637
Spine1  13.708 4.17986 1.22164
HEad  13.9593 24.0031 -13.7049
LeftShoulder1  0 -2.42657e-020 -4.95415e-022
LeftArm  -39.5118 7.84923 -89.8876
LeftForeArm  49.9731 -21.7231 -3.99622
LeftHand  0.171302 -9.62892 -2.40529
RightShoulder  0 2.42657e-020 1.07489e-018
RightArm  -30.0168 12.6805 77.5385
RightForeArm  37.2003 25.8709 4.89292
RightHand  -0.656579 24.4791 -2.65667
LeftUpLeg  -33.7315 16.794 -3.65986
LeftLeg  17.7561 3.85724 0.96413
LeftFoot  -2.98055 -0.00406045 -0.156084
LeftToes  1.78535 1.28829e-006 1.15665e-007
322
root  -5.73302 33.0092 55.4109 -167.823 45.7437 -176.593
RightUpLeg  -4.0792 -16.814 2.65537
RightLeg  16.8735 -10.4657 -2.43498
RightFoot  -5.5478 0.0385183 1.17267
RightToes  -31.0968 -0.151546 -0.259516
Spine  7.35834 1.43031 1.94682
Spine1  14.2782 4.71474 0.582139
HEad  12.5916 22.3501 -13.137
LeftShoulder1  0 -2.42657e-020 -4.95415e-022
LeftArm  -33.7558 8.22688 -88.1296
LeftForeArm  45.3354 -27.7035 -5.28763
LeftHand  0.160204 -9.67523 -2.26431
RightShoulder  0 2.42657e-020 1.07489e-018
RightArm  -27.5987 11.8661 79.7143
RightForeArm  31.1118 27.6533 5.29433
RightHand  -0.190429 23.7118 -0.537221
LeftUpLeg  -35.3813 14.6903 -3.28058
LeftLeg  20.1584 -0.0998235 -0.0319096
LeftFoot  0.603255 -0.000675664 0.128337
LeftToes  0.750187 1.28829e-006 1.15665e-007
323
root  -5.40938 32.9751 54.9227 -167.902 44.6192 -177.202
RightUpLeg  -5.43167 -16.1185 2.20783
RightLeg  20.9678 -11.9276 -3.67764
RightFoot  -5.96438 0.0570042 1.4719
RightToes  -33.6091 -0.169547 -0.276251
Spine  7.79305 1.82996 1.38646
Spine1  15.0063 5.46761 -0.229901
HEad  12.4105 20.2179 -12.2922
LeftShoulder1  0 -2.42657e-020 -4.95415e-022
LeftArm  -28.5636 7.08353 -86.3035
LeftForeArm  44.0189 -33.2646 -6.62163
LeftHand  0.141885 -9.64941 -2.05227
RightShoulder  0 2.42657e-020 1.07489e-018
RightArm  -25.0942 11.6746 81.4561
RightForeArm  31.5983 29.2847 5.6687
RightHand  -0.416042 23.9827 -1.58899
LeftUpLeg  -35.9627 11.8863 -2.86229
LeftLeg  22.4366 0.0935369 0.0290831
LeftFoot  1.40652 -0.0020349 0.16577
LeftToes  0.627259 1.28829e-006 1.15665e-007
324
root  -5.11798 32.8633 54.3962 -168.316 43.3019 -178.189
RightUpLeg  -7.23193 -16.5501 1.31117
RightLeg  26.1715 -12.2521 -5.02123
RightFoot  -6.56496 0.0781995 1.74115
RightToes  -36.2386 -0.189154 -0.292904
Spine  8.27433 2.10022 0.715078
Spine1  15.7785 5.95218 -1.1885
HEad  13.3478 18.2449 -11.1381
LeftShoulder1  0 -2.42657e-020 -4.95415e-022
LeftArm  -24.381 4.92847 -84.6415
LeftForeArm  40.453 -37.9816 -7.90173
LeftHand  0.0655517 -9.55367 -1.15521
RightShoulder  0 2.42657e-020 1.07489e-018
RightArm  -21.6312 12.0131 82.8348
RightForeArm  35.0138 31.6252 6.22594
RightHand  -0.715864 24.2918 -2.95606
LeftUpLeg  -36.0181 9.35946 -2.98832
LeftLeg  23.3522 -0.36888 -0.134659
LeftFoot  4.52202 -0.00589848 0.184787
LeftToes  -1.41216 1.28829e-006 1.15665e-007
325
root  -4.76246 32.6743 53.9527 -167.98 41.4008 -178.109
RightUpLeg  -8.98004 -16.6088 1.5973
RightLeg  31.4273 -13.1884 -6.84718
RightFoot  -6.3844 0.0869965 1.93752
RightToes  -39.2797 -0.212755 -0.311017
Spine  8.84059 2.18527 0.355226
Spine1  16.7463 6.10704 -1.68217
HEad  14.6286 16.7749 -9.88387
LeftShoulder1  0 -2.42657e-020 -4.95415e-022
LeftArm  -22.0204 1.78287 -83.7873
LeftForeArm  39.2627 -41.3081 -8.90873
LeftHand  -0.0470828 -9.61076 0.190243
RightShoulder  0 2.42657e-020 1.07489e-018
RightArm  -17.8263 13.024 83.7313
RightForeArm  35.2697 34.168 6.86815
RightHand  -0.830014 24.2158 -3.49854
LeftUpLeg  -36.7537 8.68342 -2.87927
LeftLeg  24.8317 -2.84207 -1.10191
LeftFoot  9.00854 0.0150285 -0.190783
LeftToes  -2.55834 1.28829e-006 1.15665e-007
326
root  -4.38955 32.4491 53.5329 -168.232 40.0779 -178.76
RightUpLeg  -11.8853 -15.9954 1.38371
RightLeg  38.9026 -13.5556 -9.40682
RightFoot  -6.07444 0.092566 2.12224
RightToes  -39.6903 -0.216014 -0.313366
Spine  9.70008 2.30264 -0.262788
Spine1  18.1335 6.52527 -2.90928
HEad  15.9109 15.9624 -9.06587
LeftShoulder1  0 -2.42657e-020 -4.95415e-022
LeftArm  -20.6883 -2.49964 -83.2294
LeftForeArm  40.3082 -42.4467 -9.27615
LeftHand  -0.260529 -9.52656 2.75786
RightShoulder  0 2.42657e-020 1.07489e-018
RightArm  -14.7628 15.3966 85.1633
RightForeArm  34.236 35.6657 7.2664
RightHand  -0.799317 24.2973 -3.3427
LeftUpLeg  -37.8518 7.51542 -3.06383
LeftLeg  28.1702 -3.21302 -1.46584
LeftFoot  6.66273 0.00662197 -0.0979339
LeftToes  -3.76792 1.28829e-006 1.15665e-007
327
root  -3.99646 32.2559 53.2301 -168.679 39.007 -179.441
RightUpLeg  -15.2958 -14.7407 1.38728
RightLeg  46.8792 -12.7499 -11.7325
RightFoot  -6.23859 0.10907 2.37905
RightToes  -33.5175 -0.168878 -0.275655
Spine  11.0084 2.57202 -1.06296
Spine1  20.1356 7.50762 -4.76617
HEad  16.9677 15.5361 -8.44724
LeftShoulder1  0 -2.42657e-020 -4.95415e-022
LeftArm  -19.7884 -8.31629 -82.9426
LeftForeArm  41.2913 -40.8628 -8.76553
LeftHand  -0.480368 -9.35277 5.50147
RightShoulder  0 2.42657e-020 1.07489e-018
RightArm  -13.3633 19.0563 87.4696
RightForeArm  35.0605 35.3942 7.19252
RightHand  -0.812936 25.0913 -3.28276
LeftUpLeg  -38.843 7.25827 -3.40629
LeftLeg  31.3741 -4.00364 -2.10253
LeftFoot  4.69248 -8.81553e-005 0.0021425
LeftToes  -3.56154 1.28829e-006 1.15665e-007
328
root  -3.61429 32.107 53.0133 -167.79 37.7505 -179.388
RightUpLeg  -19.3212 -13.717 2.1449
RightLeg  51.642 -6.63518 -7.34897
RightFoot  -6.65861 0.0738614 1.64736
RightToes  -35.4736 -0.183372 -0.288152
Spine  12.0665 2.62868 -1.78784
Spine1  21.6202 7.87946 -6.09809
HEad  18.9041 15.3826 -7.94236
LeftShoulder1  0 -2.42657e-020 -4.95415e-022
LeftArm  -18.8008 -13.4329 -83.0938
LeftForeArm  39.1887 -38.6134 -8.08671
LeftHand  -0.592695 -8.63934 7.47042
RightShoulder  0 2.42657e-020 1.07489e-018
RightArm  -12.5827 22.8025 90.0671
RightForeArm  37.414 34.1357 6.85761
RightHand  -0.923525 25.5663 -3.69971
LeftUpLeg  -40.1578 5.69044 -2.78734
LeftLeg  33.411 -3.78258 -2.16173
LeftFoot  3.11322 -0.00420812 0.154845
LeftToes  -4.87268 1.28829e-006 1.15665e-007
